# xmcd
#
# Track frame offsets: 
#        150
#        22265
#        43253
#        63130
#        80387
#        99957
#        121008
#        144064
#        161167
#        178693
#
# Disc length: 2623 seconds
#
# Revision: 0
# Processed by: cddbd v1.5.2PL0 Copyright (c) Steve Scherf et al.
# Submitted via: ExactAudioCopy v0.99pb5
#
DISCID=790a3d0a
DTITLE=Suzannah Espie and The Last Word - First and Last Hotel
DYEAR=2008
DGENRE=Crossover
TTITLE0=Disappointment
TTITLE1=Let it Slide
TTITLE2=City Station
TTITLE3=Lonesome Whistle
TTITLE4=Best Behaviour
TTITLE5=When You're Gone
TTITLE6=Preacher
TTITLE7=Already Gone
TTITLE8=Hope I Will
TTITLE9=I don't Know if You're the One
EXTD=
EXTT0=
EXTT1=
EXTT2=
EXTT3=
EXTT4=
EXTT5=
EXTT6=
EXTT7=
EXTT8=
EXTT9=
PLAYORDER=
